<svg xmlns="http://www.w3.org/2000/svg" xmlns:xlink="http://www.w3.org/1999/xlink" width="500" zoomAndPan="magnify" viewBox="0 0 375 374.999991" height="500" preserveAspectRatio="xMidYMid meet" version="1.0"><defs><clipPath id="66cf226e2c"><path d="M 59.660156 0 L 315.410156 0 L 315.410156 375 L 59.660156 375 Z M 59.660156 0 " clip-rule="nonzero"/></clipPath></defs><path fill="#00a8e0" d="M 187.511719 266.800781 C 158.371094 266.800781 134.65625 243.085938 134.65625 213.945312 L 134.65625 161.09375 C 134.65625 131.953125 158.371094 108.238281 187.511719 108.238281 C 216.652344 108.238281 240.363281 131.953125 240.363281 161.09375 L 240.363281 213.945312 C 240.363281 243.085938 216.652344 266.800781 187.511719 266.800781 Z M 187.511719 266.800781 " fill-opacity="1" fill-rule="nonzero"/><path fill="#ffffff" d="M 174.300781 365.152344 C 114.039062 358.457031 68.585938 307.652344 68.585938 246.976562 L 68.585938 128.058594 C 68.585938 62.488281 121.9375 9.136719 187.511719 9.136719 C 253.082031 9.136719 306.429688 62.488281 306.429688 128.058594 L 306.429688 246.976562 C 306.429688 307.652344 260.984375 358.457031 200.714844 365.152344 L 187.511719 366.617188 Z M 187.511719 108.238281 C 158.371094 108.238281 134.65625 131.953125 134.65625 161.09375 L 134.65625 213.945312 C 134.65625 239.378906 152.796875 261.226562 177.800781 265.886719 L 187.511719 267.695312 L 197.222656 265.886719 C 222.214844 261.226562 240.363281 239.378906 240.363281 213.945312 L 240.363281 161.09375 C 240.363281 131.953125 216.652344 108.238281 187.511719 108.238281 Z M 187.511719 108.238281 " fill-opacity="1" fill-rule="nonzero"/><g clip-path="url(#66cf226e2c)"><path fill="#1a1e57" d="M 187.511719 375.039062 C 116.894531 375.039062 59.449219 317.59375 59.449219 246.976562 L 59.449219 128.058594 C 59.449219 57.445312 116.894531 0 187.511719 0 C 258.128906 0 315.570312 57.445312 315.570312 128.058594 L 315.570312 246.976562 C 315.570312 317.59375 258.121094 375.039062 187.511719 375.039062 Z M 187.511719 99.105469 C 221.695312 99.105469 249.507812 126.917969 249.507812 161.09375 L 249.507812 213.945312 C 249.507812 243.777344 228.226562 269.402344 198.902344 274.867188 L 196.652344 275.289062 L 196.652344 356.40625 L 199.707031 356.070312 C 255.339844 349.890625 297.292969 302.992188 297.292969 246.976562 L 297.292969 128.058594 C 297.292969 67.523438 248.046875 18.277344 187.511719 18.277344 C 126.972656 18.277344 77.726562 67.523438 77.726562 128.058594 L 77.726562 246.976562 C 77.726562 302.984375 119.679688 349.882812 175.3125 356.070312 L 178.367188 356.40625 L 178.367188 275.289062 L 176.117188 274.867188 C 146.792969 269.402344 125.515625 243.777344 125.515625 213.945312 L 125.515625 161.09375 C 125.515625 126.910156 153.328125 99.105469 187.511719 99.105469 Z M 187.511719 117.375 C 163.40625 117.375 143.792969 136.988281 143.792969 161.09375 L 143.792969 213.945312 C 143.792969 238.050781 163.40625 257.664062 187.511719 257.664062 C 211.613281 257.664062 231.226562 238.050781 231.226562 213.945312 L 231.226562 161.09375 C 231.226562 136.988281 211.613281 117.375 187.511719 117.375 Z M 187.511719 117.375 " fill-opacity="1" fill-rule="nonzero"/></g></svg>