<svg xmlns="http://www.w3.org/2000/svg" xmlns:xlink="http://www.w3.org/1999/xlink" width="500" zoomAndPan="magnify" viewBox="0 0 375 374.999991" height="500" preserveAspectRatio="xMidYMid meet" version="1.0"><defs><g/><clipPath id="acb68e4cac"><path d="M 148.03125 104.300781 L 226.710938 104.300781 L 226.710938 219.800781 L 148.03125 219.800781 Z M 148.03125 104.300781 " clip-rule="nonzero"/></clipPath></defs><path fill="#00a8e0" d="M 187.503906 186.667969 C 178.507812 186.667969 171.1875 179.347656 171.1875 170.351562 L 171.1875 154.035156 C 171.1875 145.039062 178.507812 137.71875 187.503906 137.71875 C 196.5 137.71875 203.820312 145.039062 203.820312 154.035156 L 203.820312 170.351562 C 203.820312 179.347656 196.5 186.667969 187.503906 186.667969 Z M 187.503906 186.667969 " fill-opacity="1" fill-rule="nonzero"/><path fill="#ffffff" d="M 183.425781 217.03125 C 164.820312 214.964844 150.789062 199.28125 150.789062 180.546875 L 150.789062 143.835938 C 150.789062 123.59375 167.261719 107.121094 187.503906 107.121094 C 207.746094 107.121094 224.214844 123.59375 224.214844 143.835938 L 224.214844 180.546875 C 224.214844 199.28125 210.1875 214.964844 191.578125 217.03125 L 187.503906 217.484375 Z M 187.503906 137.71875 C 178.507812 137.71875 171.1875 145.039062 171.1875 154.035156 L 171.1875 170.351562 C 171.1875 178.203125 176.785156 184.945312 184.503906 186.386719 L 187.503906 186.945312 L 190.5 186.386719 C 198.21875 184.945312 203.820312 178.203125 203.820312 170.351562 L 203.820312 154.035156 C 203.820312 145.039062 196.5 137.71875 187.503906 137.71875 Z M 187.503906 137.71875 " fill-opacity="1" fill-rule="nonzero"/><g clip-path="url(#acb68e4cac)"><path fill="#0f3461" d="M 187.503906 220.082031 C 165.703125 220.082031 147.96875 202.347656 147.96875 180.546875 L 147.96875 143.835938 C 147.96875 122.035156 165.703125 104.300781 187.503906 104.300781 C 209.304688 104.300781 227.039062 122.035156 227.039062 143.835938 L 227.039062 180.546875 C 227.039062 202.347656 209.300781 220.082031 187.503906 220.082031 Z M 187.503906 134.898438 C 198.058594 134.898438 206.644531 143.484375 206.644531 154.035156 L 206.644531 170.351562 C 206.644531 179.558594 200.074219 187.472656 191.019531 189.15625 L 190.328125 189.289062 L 190.328125 214.332031 L 191.269531 214.226562 C 208.445312 212.320312 221.394531 197.839844 221.394531 180.546875 L 221.394531 143.835938 C 221.394531 125.148438 206.191406 109.945312 187.503906 109.945312 C 168.816406 109.945312 153.613281 125.148438 153.613281 143.835938 L 153.613281 180.546875 C 153.613281 197.839844 166.5625 212.316406 183.738281 214.226562 L 184.679688 214.332031 L 184.679688 189.289062 L 183.988281 189.15625 C 174.933594 187.472656 168.363281 179.558594 168.363281 170.351562 L 168.363281 154.035156 C 168.363281 143.480469 176.949219 134.898438 187.503906 134.898438 Z M 187.503906 140.539062 C 180.0625 140.539062 174.007812 146.59375 174.007812 154.035156 L 174.007812 170.351562 C 174.007812 177.792969 180.0625 183.847656 187.503906 183.847656 C 194.945312 183.847656 201 177.792969 201 170.351562 L 201 154.035156 C 201 146.59375 194.945312 140.539062 187.503906 140.539062 Z M 187.503906 140.539062 " fill-opacity="1" fill-rule="nonzero"/></g><g fill="#0f3461" fill-opacity="1"><g transform="translate(138.410568, 252.348382)"><g><path d="M 5.875 -6.796875 L 5.875 0 L 1.6875 0 L 1.6875 -19.046875 L 8.8125 -19.046875 C 9.84375 -19.046875 10.800781 -18.785156 11.6875 -18.265625 C 12.570312 -17.753906 13.285156 -17.039062 13.828125 -16.125 C 14.367188 -15.207031 14.640625 -14.144531 14.640625 -12.9375 C 14.640625 -11.875 14.441406 -10.929688 14.046875 -10.109375 C 13.660156 -9.285156 13.140625 -8.613281 12.484375 -8.09375 C 11.835938 -7.570312 11.109375 -7.207031 10.296875 -7 L 15.765625 0 L 10.4375 0 L 5.90625 -6.796875 Z M 8.125 -15.734375 L 5.875 -15.734375 L 5.875 -10.109375 L 8.125 -10.109375 C 8.738281 -10.109375 9.3125 -10.347656 9.84375 -10.828125 C 10.375 -11.316406 10.640625 -12.019531 10.640625 -12.9375 C 10.640625 -13.8125 10.375 -14.492188 9.84375 -14.984375 C 9.3125 -15.484375 8.738281 -15.734375 8.125 -15.734375 Z M 8.125 -15.734375 "/></g></g></g><g fill="#0f3461" fill-opacity="1"><g transform="translate(153.27646, 252.348382)"><g><path d="M 5.484375 -7.640625 L 11 -7.640625 C 11 -7.640625 10.972656 -7.753906 10.921875 -7.984375 C 10.878906 -8.222656 10.769531 -8.488281 10.59375 -8.78125 C 10.414062 -9.082031 10.140625 -9.347656 9.765625 -9.578125 C 9.398438 -9.816406 8.898438 -9.9375 8.265625 -9.9375 C 7.609375 -9.9375 7.09375 -9.816406 6.71875 -9.578125 C 6.34375 -9.347656 6.066406 -9.082031 5.890625 -8.78125 C 5.710938 -8.488281 5.597656 -8.222656 5.546875 -7.984375 C 5.503906 -7.753906 5.484375 -7.640625 5.484375 -7.640625 Z M 15.03125 -6.4375 C 15.03125 -6.3125 15.023438 -6.179688 15.015625 -6.046875 C 15.015625 -5.921875 15.015625 -5.789062 15.015625 -5.65625 L 5.4375 -5.65625 C 5.4375 -5.1875 5.539062 -4.722656 5.75 -4.265625 C 5.96875 -3.804688 6.273438 -3.429688 6.671875 -3.140625 C 7.078125 -2.859375 7.550781 -2.71875 8.09375 -2.71875 C 8.84375 -2.71875 9.429688 -2.914062 9.859375 -3.3125 C 10.285156 -3.71875 10.507812 -4.144531 10.53125 -4.59375 L 14.8125 -4.59375 C 14.457031 -2.96875 13.671875 -1.75 12.453125 -0.9375 C 11.242188 -0.125 9.816406 0.28125 8.171875 0.28125 C 6.753906 0.28125 5.503906 0.015625 4.421875 -0.515625 C 3.335938 -1.046875 2.492188 -1.789062 1.890625 -2.75 C 1.285156 -3.71875 0.984375 -4.851562 0.984375 -6.15625 C 0.984375 -7.445312 1.296875 -8.578125 1.921875 -9.546875 C 2.546875 -10.515625 3.398438 -11.269531 4.484375 -11.8125 C 5.566406 -12.351562 6.796875 -12.625 8.171875 -12.625 C 9.421875 -12.625 10.5625 -12.378906 11.59375 -11.890625 C 12.632812 -11.410156 13.46875 -10.710938 14.09375 -9.796875 C 14.71875 -8.878906 15.03125 -7.757812 15.03125 -6.4375 Z M 15.03125 -6.4375 "/></g></g></g><g fill="#0f3461" fill-opacity="1"><g transform="translate(168.73028, 252.348382)"><g><path d="M 13.109375 -8.59375 L 8.984375 -8.59375 C 8.910156 -9.15625 8.660156 -9.535156 8.234375 -9.734375 C 7.816406 -9.929688 7.40625 -10.03125 7 -10.03125 C 6.59375 -10.03125 6.207031 -9.929688 5.84375 -9.734375 C 5.488281 -9.535156 5.3125 -9.25 5.3125 -8.875 C 5.3125 -8.59375 5.503906 -8.378906 5.890625 -8.234375 C 6.273438 -8.097656 6.769531 -7.988281 7.375 -7.90625 C 7.976562 -7.820312 8.617188 -7.710938 9.296875 -7.578125 C 9.984375 -7.453125 10.628906 -7.25 11.234375 -6.96875 C 11.847656 -6.6875 12.34375 -6.289062 12.71875 -5.78125 C 13.101562 -5.269531 13.296875 -4.578125 13.296875 -3.703125 C 13.296875 -2.722656 13.039062 -1.941406 12.53125 -1.359375 C 12.019531 -0.785156 11.304688 -0.367188 10.390625 -0.109375 C 9.472656 0.148438 8.414062 0.28125 7.21875 0.28125 C 6.007812 0.28125 4.914062 0.117188 3.9375 -0.203125 C 2.957031 -0.535156 2.164062 -1.0625 1.5625 -1.78125 C 0.96875 -2.5 0.632812 -3.4375 0.5625 -4.59375 L 4.734375 -4.59375 C 4.734375 -3.976562 4.878906 -3.535156 5.171875 -3.265625 C 5.472656 -2.992188 5.828125 -2.816406 6.234375 -2.734375 C 6.648438 -2.660156 7.007812 -2.625 7.3125 -2.625 C 7.789062 -2.625 8.203125 -2.710938 8.546875 -2.890625 C 8.898438 -3.066406 9.078125 -3.328125 9.078125 -3.671875 C 9.078125 -4.097656 8.882812 -4.421875 8.5 -4.640625 C 8.113281 -4.867188 7.617188 -5.035156 7.015625 -5.140625 C 6.410156 -5.253906 5.765625 -5.367188 5.078125 -5.484375 C 4.398438 -5.597656 3.753906 -5.757812 3.140625 -5.96875 C 2.535156 -6.1875 2.039062 -6.507812 1.65625 -6.9375 C 1.28125 -7.375 1.09375 -7.960938 1.09375 -8.703125 C 1.09375 -9.972656 1.585938 -10.941406 2.578125 -11.609375 C 3.566406 -12.285156 5.078125 -12.625 7.109375 -12.625 C 8.734375 -12.625 10.09375 -12.304688 11.1875 -11.671875 C 12.28125 -11.035156 12.921875 -10.007812 13.109375 -8.59375 Z M 13.109375 -8.59375 "/></g></g></g><g fill="#0f3461" fill-opacity="1"><g transform="translate(182.308356, 252.348382)"><g><path d="M 1.40625 -5.3125 L 1.40625 -12.34375 L 5.59375 -12.34375 L 5.59375 -5.3125 C 5.59375 -4.601562 5.742188 -4.050781 6.046875 -3.65625 C 6.347656 -3.269531 6.820312 -3.078125 7.46875 -3.078125 C 8.125 -3.078125 8.679688 -3.382812 9.140625 -4 C 9.597656 -4.613281 9.828125 -5.332031 9.828125 -6.15625 L 9.828125 -12.34375 L 14.03125 -12.34375 L 14.03125 0 L 9.828125 0 L 9.828125 -1.515625 C 9.421875 -0.992188 8.894531 -0.5625 8.25 -0.21875 C 7.601562 0.113281 6.867188 0.28125 6.046875 0.28125 C 4.398438 0.28125 3.210938 -0.234375 2.484375 -1.265625 C 1.765625 -2.304688 1.40625 -3.65625 1.40625 -5.3125 Z M 1.40625 -5.3125 "/></g></g></g><g fill="#0f3461" fill-opacity="1"><g transform="translate(197.454216, 252.348382)"><g><path d="M 14.140625 -6.265625 L 14.140625 0 L 9.9375 0 L 9.9375 -6.828125 C 9.9375 -7.429688 9.816406 -7.984375 9.578125 -8.484375 C 9.335938 -8.984375 8.859375 -9.234375 8.140625 -9.234375 C 7.679688 -9.234375 7.273438 -9.0625 6.921875 -8.71875 C 6.578125 -8.375 6.316406 -7.960938 6.140625 -7.484375 C 5.960938 -7.015625 5.875 -6.570312 5.875 -6.15625 L 5.875 0 L 1.6875 0 L 1.6875 -12.34375 L 5.875 -12.34375 L 5.875 -10.84375 C 6.3125 -11.375 6.816406 -11.800781 7.390625 -12.125 C 7.972656 -12.457031 8.609375 -12.625 9.296875 -12.625 C 10.078125 -12.625 10.800781 -12.453125 11.46875 -12.109375 C 12.144531 -11.765625 12.695312 -11.238281 13.125 -10.53125 C 13.726562 -11.289062 14.390625 -11.828125 15.109375 -12.140625 C 15.828125 -12.460938 16.671875 -12.625 17.640625 -12.625 C 18.722656 -12.625 19.613281 -12.363281 20.3125 -11.84375 C 21.007812 -11.320312 21.53125 -10.617188 21.875 -9.734375 C 22.226562 -8.859375 22.40625 -7.890625 22.40625 -6.828125 L 22.40625 0 L 18.203125 0 L 18.203125 -6.828125 C 18.203125 -7.429688 18.078125 -7.984375 17.828125 -8.484375 C 17.585938 -8.984375 17.113281 -9.234375 16.40625 -9.234375 C 15.863281 -9.234375 15.425781 -9.082031 15.09375 -8.78125 C 14.757812 -8.488281 14.515625 -8.113281 14.359375 -7.65625 C 14.210938 -7.195312 14.140625 -6.734375 14.140625 -6.265625 Z M 14.140625 -6.265625 "/></g></g></g><g fill="#0f3461" fill-opacity="1"><g transform="translate(220.550984, 252.348382)"><g><path d="M 5.484375 -7.640625 L 11 -7.640625 C 11 -7.640625 10.972656 -7.753906 10.921875 -7.984375 C 10.878906 -8.222656 10.769531 -8.488281 10.59375 -8.78125 C 10.414062 -9.082031 10.140625 -9.347656 9.765625 -9.578125 C 9.398438 -9.816406 8.898438 -9.9375 8.265625 -9.9375 C 7.609375 -9.9375 7.09375 -9.816406 6.71875 -9.578125 C 6.34375 -9.347656 6.066406 -9.082031 5.890625 -8.78125 C 5.710938 -8.488281 5.597656 -8.222656 5.546875 -7.984375 C 5.503906 -7.753906 5.484375 -7.640625 5.484375 -7.640625 Z M 15.03125 -6.4375 C 15.03125 -6.3125 15.023438 -6.179688 15.015625 -6.046875 C 15.015625 -5.921875 15.015625 -5.789062 15.015625 -5.65625 L 5.4375 -5.65625 C 5.4375 -5.1875 5.539062 -4.722656 5.75 -4.265625 C 5.96875 -3.804688 6.273438 -3.429688 6.671875 -3.140625 C 7.078125 -2.859375 7.550781 -2.71875 8.09375 -2.71875 C 8.84375 -2.71875 9.429688 -2.914062 9.859375 -3.3125 C 10.285156 -3.71875 10.507812 -4.144531 10.53125 -4.59375 L 14.8125 -4.59375 C 14.457031 -2.96875 13.671875 -1.75 12.453125 -0.9375 C 11.242188 -0.125 9.816406 0.28125 8.171875 0.28125 C 6.753906 0.28125 5.503906 0.015625 4.421875 -0.515625 C 3.335938 -1.046875 2.492188 -1.789062 1.890625 -2.75 C 1.285156 -3.71875 0.984375 -4.851562 0.984375 -6.15625 C 0.984375 -7.445312 1.296875 -8.578125 1.921875 -9.546875 C 2.546875 -10.515625 3.398438 -11.269531 4.484375 -11.8125 C 5.566406 -12.351562 6.796875 -12.625 8.171875 -12.625 C 9.421875 -12.625 10.5625 -12.378906 11.59375 -11.890625 C 12.632812 -11.410156 13.46875 -10.710938 14.09375 -9.796875 C 14.71875 -8.878906 15.03125 -7.757812 15.03125 -6.4375 Z M 15.03125 -6.4375 "/></g></g></g><g fill="#00a8e0" fill-opacity="1"><g transform="translate(167.77333, 268.14839)"><g><path d="M 3.484375 -1.796875 C 3.484375 -1.992188 3.410156 -2.164062 3.265625 -2.3125 C 3.117188 -2.457031 2.945312 -2.53125 2.75 -2.53125 L 1.890625 -2.53125 L 1.890625 -1.046875 L 2.75 -1.046875 C 2.945312 -1.046875 3.117188 -1.117188 3.265625 -1.265625 C 3.410156 -1.410156 3.484375 -1.585938 3.484375 -1.796875 Z M 3.0625 -4.34375 C 3.0625 -4.539062 2.988281 -4.707031 2.84375 -4.84375 C 2.707031 -4.988281 2.546875 -5.0625 2.359375 -5.0625 L 1.890625 -5.0625 L 1.890625 -3.640625 L 2.359375 -3.640625 C 2.546875 -3.640625 2.707031 -3.707031 2.84375 -3.84375 C 2.988281 -3.988281 3.0625 -4.15625 3.0625 -4.34375 Z M 4.875 -1.75 C 4.875 -1.226562 4.707031 -0.804688 4.375 -0.484375 C 4.050781 -0.160156 3.597656 0 3.015625 0 L 0.546875 0 L 0.546875 -6.125 L 2.640625 -6.125 C 2.992188 -6.125 3.296875 -6.050781 3.546875 -5.90625 C 3.804688 -5.769531 4.003906 -5.585938 4.140625 -5.359375 C 4.285156 -5.128906 4.359375 -4.875 4.359375 -4.59375 C 4.359375 -4.28125 4.289062 -4.007812 4.15625 -3.78125 C 4.03125 -3.5625 3.851562 -3.398438 3.625 -3.296875 C 3.96875 -3.210938 4.257812 -3.035156 4.5 -2.765625 C 4.75 -2.503906 4.875 -2.164062 4.875 -1.75 Z M 4.875 -1.75 "/></g></g></g><g fill="#00a8e0" fill-opacity="1"><g transform="translate(173.812364, 268.14839)"><g><path d="M 4.109375 -6.125 L 5.46875 -6.125 L 5.46875 -2.390625 C 5.46875 -1.566406 5.242188 -0.945312 4.796875 -0.53125 C 4.347656 -0.113281 3.726562 0.09375 2.9375 0.09375 C 2.132812 0.09375 1.507812 -0.113281 1.0625 -0.53125 C 0.625 -0.945312 0.40625 -1.566406 0.40625 -2.390625 L 0.40625 -6.125 L 1.75 -6.125 L 1.75 -2.578125 C 1.75 -2.160156 1.832031 -1.835938 2 -1.609375 C 2.164062 -1.378906 2.476562 -1.265625 2.9375 -1.265625 C 3.394531 -1.265625 3.703125 -1.378906 3.859375 -1.609375 C 4.023438 -1.835938 4.109375 -2.160156 4.109375 -2.578125 Z M 4.109375 -6.125 "/></g></g></g><g fill="#00a8e0" fill-opacity="1"><g transform="translate(180.760402, 268.14839)"><g><path d="M 1.890625 0 L 0.546875 0 L 0.546875 -6.125 L 1.890625 -6.125 Z M 1.890625 0 "/></g></g></g><g fill="#00a8e0" fill-opacity="1"><g transform="translate(184.270418, 268.14839)"><g><path d="M 0.546875 0 L 0.546875 -6.125 L 1.890625 -6.125 L 1.890625 -1.21875 L 4.09375 -1.21875 L 4.09375 0 Z M 0.546875 0 "/></g></g></g><g fill="#00a8e0" fill-opacity="1"><g transform="translate(189.75145, 268.14839)"><g><path d="M 1.875 -1.234375 L 2.28125 -1.234375 C 2.625 -1.234375 2.925781 -1.316406 3.1875 -1.484375 C 3.445312 -1.648438 3.648438 -1.867188 3.796875 -2.140625 C 3.941406 -2.421875 4.015625 -2.726562 4.015625 -3.0625 C 4.015625 -3.40625 3.941406 -3.710938 3.796875 -3.984375 C 3.648438 -4.253906 3.445312 -4.46875 3.1875 -4.625 C 2.925781 -4.789062 2.625 -4.875 2.28125 -4.875 L 1.875 -4.875 Z M 0.546875 -6.125 L 2.359375 -6.125 C 2.785156 -6.125 3.179688 -6.046875 3.546875 -5.890625 C 3.921875 -5.734375 4.242188 -5.515625 4.515625 -5.234375 C 4.796875 -4.960938 5.015625 -4.640625 5.171875 -4.265625 C 5.328125 -3.890625 5.40625 -3.488281 5.40625 -3.0625 C 5.40625 -2.625 5.328125 -2.21875 5.171875 -1.84375 C 5.015625 -1.476562 4.800781 -1.15625 4.53125 -0.875 C 4.257812 -0.601562 3.9375 -0.390625 3.5625 -0.234375 C 3.1875 -0.078125 2.785156 0 2.359375 0 L 0.546875 0 Z M 0.546875 -6.125 "/></g></g></g><g fill="#00a8e0" fill-opacity="1"><g transform="translate(196.546493, 268.14839)"><g><path d="M 4.09375 -1.21875 L 4.09375 0 L 0.546875 0 L 0.546875 -6.125 L 4.09375 -6.125 L 4.09375 -4.890625 L 1.890625 -4.890625 L 1.890625 -3.6875 L 4 -3.6875 L 4 -2.453125 L 1.890625 -2.453125 L 1.890625 -1.21875 Z M 4.09375 -1.21875 "/></g></g></g><g fill="#00a8e0" fill-opacity="1"><g transform="translate(202.252525, 268.14839)"><g><path d="M 1.890625 -2.1875 L 1.890625 0 L 0.546875 0 L 0.546875 -6.125 L 2.828125 -6.125 C 3.160156 -6.125 3.46875 -6.039062 3.75 -5.875 C 4.039062 -5.707031 4.269531 -5.476562 4.4375 -5.1875 C 4.613281 -4.894531 4.703125 -4.550781 4.703125 -4.15625 C 4.703125 -3.8125 4.640625 -3.507812 4.515625 -3.25 C 4.390625 -2.988281 4.222656 -2.769531 4.015625 -2.59375 C 3.804688 -2.425781 3.570312 -2.3125 3.3125 -2.25 L 5.0625 0 L 3.359375 0 L 1.90625 -2.1875 Z M 2.609375 -5.0625 L 1.890625 -5.0625 L 1.890625 -3.25 L 2.609375 -3.25 C 2.804688 -3.25 2.988281 -3.328125 3.15625 -3.484375 C 3.332031 -3.640625 3.421875 -3.863281 3.421875 -4.15625 C 3.421875 -4.4375 3.332031 -4.65625 3.15625 -4.8125 C 2.988281 -4.976562 2.804688 -5.0625 2.609375 -5.0625 Z M 2.609375 -5.0625 "/></g></g></g></svg>