<svg xmlns="http://www.w3.org/2000/svg" xmlns:xlink="http://www.w3.org/1999/xlink" width="500" zoomAndPan="magnify" viewBox="0 0 375 60" height="80" preserveAspectRatio="xMidYMid meet" version="1.2"><defs><clipPath id="95a592e768"><path d="M 0 0 L 62 0 L 62 56.25 L 0 56.25 Z M 0 0 "/></clipPath><clipPath id="8a207faca8"><path d="M 15 16 L 63.75 16 L 63.75 56.25 L 15 56.25 Z M 15 16 "/></clipPath><clipPath id="1d6cd440ea"><rect x="0" width="104" y="0" height="41"/></clipPath><clipPath id="4733953fce"><rect x="0" width="41" y="0" height="19"/></clipPath></defs><g id="3cb60e887e"><g clip-rule="nonzero" clip-path="url(#95a592e768)"><path style=" stroke:none;fill-rule:nonzero;fill:#5e17eb;fill-opacity:1;" d="M 10.011719 56.542969 L 10.011719 48.597656 L 9.972656 48.597656 L 9.972656 10.804688 C 10.199219 10.730469 10.300781 10.667969 10.398438 10.667969 C 19.738281 10.660156 29.078125 10.523438 38.414062 10.703125 C 43.832031 10.8125 47.828125 13.640625 49.941406 18.628906 C 52.027344 23.558594 51.128906 28.1875 47.675781 32.304688 C 47.378906 32.660156 47.101562 33.035156 46.964844 33.210938 C 49.453125 35.667969 51.832031 38.019531 54.257812 40.414062 C 54.164062 40.464844 54.269531 40.429688 54.347656 40.359375 C 54.546875 40.183594 54.742188 40 54.921875 39.800781 C 61.507812 32.429688 63.351562 23.96875 59.625 14.851562 C 55.851562 5.617188 48.523438 0.554688 38.527344 0.308594 C 25.976562 -0.00390625 13.410156 0.222656 0.851562 0.222656 C 0.585938 0.222656 0.320312 0.242188 0.0234375 0.269531 L 0.0234375 56.542969 Z M 10.011719 56.542969 "/></g><g clip-rule="nonzero" clip-path="url(#8a207faca8)"><path style=" stroke:none;fill-rule:nonzero;fill:#5e17eb;fill-opacity:1;" d="M 24.980469 56.542969 L 24.980469 33.882812 C 27.78125 36.660156 30.601562 39.449219 33.414062 42.234375 C 35.5625 44.359375 37.707031 46.484375 39.84375 48.597656 L 39.710938 48.597656 L 47.578125 56.542969 L 63.871094 56.542969 C 53.5625 46.285156 43.253906 36.027344 32.898438 25.722656 L 42.035156 25.722656 L 42.035156 16.0625 L 15.621094 16.0625 L 15.621094 56.542969 Z M 24.980469 56.542969 "/></g><path style=" stroke:none;fill-rule:nonzero;fill:#5e17eb;fill-opacity:1;" d="M 25.046875 33.777344 C 32.132812 40.867188 39.21875 48.273438 46.5 55.453125 "/><g transform="matrix(1,0,0,1,68,5)"><g clip-path="url(#1d6cd440ea)"><g style="fill:#ffffff;fill-opacity:1;"><g transform="translate(0.278108, 30.256066)"><path style="stroke:none" d="M 13.027344 -9.167969 C 15.46875 -9.8125 16.675781 -11.394531 16.675781 -13.832031 C 16.675781 -16.542969 15.199219 -19.089844 10.644531 -19.089844 L 1.742188 -19.089844 L 1.742188 0 L 5.710938 0 L 5.710938 -7.398438 L 9.222656 -7.398438 C 11.285156 -7.398438 11.957031 -6.542969 12.117188 -4.90625 L 12.574219 0 L 16.648438 0 L 15.871094 -6.058594 C 15.710938 -7.320312 15.253906 -8.714844 13.027344 -9.167969 Z M 5.710938 -15.765625 L 10.054688 -15.765625 C 12.011719 -15.765625 12.789062 -14.691406 12.789062 -13.296875 C 12.789062 -11.824219 11.902344 -10.617188 9.515625 -10.617188 L 5.710938 -10.617188 Z M 5.710938 -15.765625 "/></g></g><g style="fill:#ffffff;fill-opacity:1;"><g transform="translate(18.427592, 30.256066)"><path style="stroke:none" d="M 14.773438 -6.433594 C 14.773438 -11.285156 11.769531 -14.183594 7.667969 -14.183594 C 3.429688 -14.183594 0.859375 -11.019531 0.859375 -6.96875 C 0.859375 -2.734375 3.484375 0.457031 8.070312 0.457031 C 11.179688 0.457031 13.484375 -0.992188 14.421875 -3.996094 L 10.671875 -4.261719 C 10.214844 -3.054688 9.300781 -2.464844 7.988281 -2.464844 C 6.113281 -2.464844 4.90625 -3.699219 4.746094 -5.789062 L 14.773438 -5.789062 Z M 7.800781 -11.421875 C 9.515625 -11.421875 10.644531 -10.292969 10.859375 -8.363281 L 4.71875 -8.363281 C 4.90625 -10.269531 6.085938 -11.421875 7.800781 -11.421875 Z M 7.800781 -11.421875 "/></g></g><g style="fill:#ffffff;fill-opacity:1;"><g transform="translate(34.05706, 30.256066)"><path style="stroke:none" d="M 7.398438 0.507812 C 11.125 0.507812 13.539062 -1.179688 13.539062 -4.101562 C 13.539062 -6.246094 12.25 -7.507812 9.492188 -8.070312 L 6.515625 -8.6875 C 5.523438 -8.902344 4.960938 -9.355469 4.960938 -10.082031 C 4.960938 -10.964844 5.765625 -11.554688 7.023438 -11.554688 C 8.445312 -11.554688 9.464844 -10.832031 9.652344 -9.625 L 13.054688 -9.757812 C 12.707031 -12.464844 10.429688 -14.183594 7.078125 -14.183594 C 3.671875 -14.183594 1.449219 -12.414062 1.449219 -9.625 C 1.449219 -7.507812 2.761719 -6.113281 5.46875 -5.578125 L 8.203125 -5.039062 C 9.464844 -4.796875 10.027344 -4.398438 10.027344 -3.644531 C 10.027344 -2.601562 8.953125 -2.117188 7.535156 -2.117188 C 5.738281 -2.117188 4.796875 -2.894531 4.585938 -4.261719 L 1.125 -4.128906 C 1.472656 -1.179688 3.621094 0.507812 7.398438 0.507812 Z M 7.398438 0.507812 "/></g></g><g style="fill:#ffffff;fill-opacity:1;"><g transform="translate(48.53375, 30.256066)"><path style="stroke:none" d="M 10.105469 -6.433594 C 10.105469 -4.371094 9.007812 -3.054688 7.398438 -3.054688 C 6.058594 -3.054688 5.386719 -3.96875 5.386719 -5.414062 L 5.386719 -13.832031 L 1.609375 -13.832031 L 1.609375 -4.558594 C 1.609375 -1.554688 3.269531 0.347656 6.140625 0.347656 C 7.910156 0.347656 9.222656 -0.375 10.132812 -1.875 L 10.1875 0 L 13.886719 0 L 13.886719 -13.832031 L 10.105469 -13.832031 Z M 10.105469 -6.433594 "/></g></g><g style="fill:#ffffff;fill-opacity:1;"><g transform="translate(64.029176, 30.256066)"><path style="stroke:none" d="M 17.15625 -14.183594 C 15.28125 -14.183594 13.96875 -13.378906 13.082031 -11.6875 C 12.464844 -13.242188 11.097656 -14.183594 9.113281 -14.183594 C 7.453125 -14.183594 6.21875 -13.484375 5.363281 -12.0625 L 5.308594 -13.832031 L 1.609375 -13.832031 L 1.609375 0 L 5.386719 0 L 5.386719 -7.398438 C 5.386719 -9.464844 6.378906 -10.777344 7.855469 -10.777344 C 9.167969 -10.777344 9.703125 -9.730469 9.703125 -8.5 L 9.703125 0 L 13.484375 0 L 13.484375 -7.398438 C 13.484375 -9.464844 14.476562 -10.777344 15.953125 -10.777344 C 17.265625 -10.777344 17.800781 -9.730469 17.800781 -8.5 L 17.800781 0 L 21.582031 0 L 21.582031 -9.25 C 21.582031 -12.144531 20.027344 -14.183594 17.15625 -14.183594 Z M 17.15625 -14.183594 "/></g></g><g style="fill:#ffffff;fill-opacity:1;"><g transform="translate(87.218695, 30.256066)"><path style="stroke:none" d="M 14.773438 -6.433594 C 14.773438 -11.285156 11.769531 -14.183594 7.667969 -14.183594 C 3.429688 -14.183594 0.859375 -11.019531 0.859375 -6.96875 C 0.859375 -2.734375 3.484375 0.457031 8.070312 0.457031 C 11.179688 0.457031 13.484375 -0.992188 14.421875 -3.996094 L 10.671875 -4.261719 C 10.214844 -3.054688 9.300781 -2.464844 7.988281 -2.464844 C 6.113281 -2.464844 4.90625 -3.699219 4.746094 -5.789062 L 14.773438 -5.789062 Z M 7.800781 -11.421875 C 9.515625 -11.421875 10.644531 -10.292969 10.859375 -8.363281 L 4.71875 -8.363281 C 4.90625 -10.269531 6.085938 -11.421875 7.800781 -11.421875 Z M 7.800781 -11.421875 "/></g></g></g></g><g transform="matrix(1,0,0,1,68,40)"><g clip-path="url(#4733953fce)"><g style="fill:#ffffff;fill-opacity:1;"><g transform="translate(0.278108, 13.815962)"><path style="stroke:none" d="M 6.003906 -4.492188 C 6.777344 -4.808594 7.214844 -5.441406 7.214844 -6.308594 C 7.214844 -7.601562 6.285156 -8.351562 4.761719 -8.351562 L 0.996094 -8.351562 L 0.996094 0 L 4.84375 0 C 6.578125 0 7.601562 -0.914062 7.601562 -2.429688 C 7.601562 -3.496094 7.082031 -4.164062 6.003906 -4.492188 Z M 4.632812 -7.402344 C 5.582031 -7.402344 6.097656 -6.988281 6.097656 -6.15625 C 6.097656 -5.300781 5.546875 -4.808594 4.527344 -4.808594 L 2.085938 -4.808594 L 2.085938 -7.402344 Z M 2.085938 -0.949219 L 2.085938 -3.894531 L 4.761719 -3.894531 C 5.886719 -3.894531 6.484375 -3.390625 6.484375 -2.429688 C 6.484375 -1.453125 5.898438 -0.949219 4.761719 -0.949219 Z M 2.085938 -0.949219 "/></g></g><g style="fill:#ffffff;fill-opacity:1;"><g transform="translate(8.757655, 13.815962)"><path style="stroke:none" d="M 4.949219 -2.6875 C 4.949219 -1.242188 4.058594 -0.785156 3.226562 -0.785156 C 2.40625 -0.785156 2.015625 -1.230469 2.015625 -2.0625 L 2.015625 -6.050781 L 0.9375 -6.050781 L 0.9375 -1.851562 C 0.9375 -0.574219 1.722656 0.152344 2.992188 0.152344 C 3.882812 0.152344 4.609375 -0.210938 5.019531 -0.855469 L 5.019531 0 L 6.027344 0 L 6.027344 -6.050781 L 4.949219 -6.050781 Z M 4.949219 -2.6875 "/></g></g><g style="fill:#ffffff;fill-opacity:1;"><g transform="translate(15.724253, 13.815962)"><path style="stroke:none" d="M 2.015625 -7.191406 L 2.015625 -8.351562 L 0.9375 -8.351562 L 0.9375 -7.191406 Z M 2.015625 0 L 2.015625 -6.050781 L 0.9375 -6.050781 L 0.9375 0 Z M 2.015625 0 "/></g></g><g style="fill:#ffffff;fill-opacity:1;"><g transform="translate(18.679784, 13.815962)"><path style="stroke:none" d="M 2.015625 0 L 2.015625 -8.351562 L 0.9375 -8.351562 L 0.9375 0 Z M 2.015625 0 "/></g></g><g style="fill:#ffffff;fill-opacity:1;"><g transform="translate(21.635315, 13.815962)"><path style="stroke:none" d="M 5.03125 -5.324219 C 4.644531 -5.851562 3.988281 -6.179688 3.203125 -6.179688 C 1.664062 -6.179688 0.585938 -4.949219 0.585938 -3.121094 C 0.585938 -1.242188 1.582031 0.128906 3.226562 0.128906 C 4.105469 0.128906 4.808594 -0.328125 5.171875 -0.960938 L 5.171875 0 L 6.109375 0 L 6.109375 -8.351562 L 5.03125 -8.351562 Z M 3.332031 -0.796875 C 2.285156 -0.796875 1.664062 -1.710938 1.664062 -3.121094 C 1.664062 -4.503906 2.308594 -5.253906 3.355469 -5.253906 C 4.363281 -5.253906 5.089844 -4.527344 5.089844 -3.097656 C 5.089844 -1.664062 4.339844 -0.796875 3.332031 -0.796875 Z M 3.332031 -0.796875 "/></g></g><g style="fill:#ffffff;fill-opacity:1;"><g transform="translate(28.684011, 13.815962)"><path style="stroke:none" d="M 6.203125 -3.167969 C 6.203125 -5.054688 5.136719 -6.191406 3.4375 -6.191406 C 1.628906 -6.191406 0.585938 -4.902344 0.585938 -3.050781 C 0.585938 -1.183594 1.652344 0.140625 3.460938 0.140625 C 4.75 0.140625 5.734375 -0.539062 6.121094 -1.722656 L 5.136719 -1.839844 C 4.855469 -1.136719 4.339844 -0.738281 3.496094 -0.738281 C 2.40625 -0.738281 1.699219 -1.40625 1.664062 -2.769531 L 6.203125 -2.769531 Z M 3.449219 -5.3125 C 4.433594 -5.3125 5.054688 -4.691406 5.195312 -3.542969 L 1.675781 -3.542969 C 1.78125 -4.726562 2.488281 -5.3125 3.449219 -5.3125 Z M 3.449219 -5.3125 "/></g></g><g style="fill:#ffffff;fill-opacity:1;"><g transform="translate(35.474692, 13.815962)"><path style="stroke:none" d="M 3.8125 -6.214844 C 2.898438 -6.214844 2.308594 -5.699219 1.945312 -4.890625 L 1.945312 -6.050781 L 0.9375 -6.050781 L 0.9375 0 L 2.015625 0 L 2.015625 -3.308594 C 2.0625 -4.539062 2.957031 -5.160156 3.753906 -5.160156 C 3.859375 -5.160156 3.976562 -5.160156 4.140625 -5.148438 L 4.140625 -6.191406 C 4.035156 -6.203125 3.929688 -6.214844 3.8125 -6.214844 Z M 3.8125 -6.214844 "/></g></g></g></g></g></svg>