<svg xmlns="http://www.w3.org/2000/svg" xmlns:xlink="http://www.w3.org/1999/xlink" width="500" zoomAndPan="magnify" viewBox="0 0 375 60" height="80" preserveAspectRatio="xMidYMid meet" version="1.2"><defs><clipPath id="9f090a6639"><path d="M 0 0 L 61 0 L 61 55.5 L 0 55.5 Z M 0 0 "/></clipPath><clipPath id="cce183b71c"><path d="M 15 15 L 63 15 L 63 55.5 L 15 55.5 Z M 15 15 "/></clipPath><clipPath id="fa9bae88ec"><rect x="0" width="102" y="0" height="40"/></clipPath><clipPath id="6edad19607"><rect x="0" width="40" y="0" height="19"/></clipPath></defs><g id="5967eaf8e4"><g clip-rule="nonzero" clip-path="url(#9f090a6639)"><path style=" stroke:none;fill-rule:nonzero;fill:#5e17eb;fill-opacity:1;" d="M 9.867188 55.734375 L 9.867188 47.902344 L 9.828125 47.902344 L 9.828125 10.648438 C 10.054688 10.574219 10.152344 10.515625 10.25 10.515625 C 19.453125 10.507812 28.664062 10.371094 37.863281 10.550781 C 43.203125 10.65625 47.140625 13.445312 49.226562 18.363281 C 51.285156 23.222656 50.394531 27.785156 46.996094 31.84375 C 46.699219 32.191406 46.429688 32.5625 46.292969 32.738281 C 48.746094 35.160156 51.09375 37.476562 53.480469 39.835938 C 53.386719 39.886719 53.492188 39.851562 53.570312 39.785156 C 53.765625 39.609375 53.960938 39.425781 54.136719 39.230469 C 60.628906 31.964844 62.445312 23.628906 58.773438 14.640625 C 55.050781 5.535156 47.828125 0.546875 37.976562 0.304688 C 25.605469 -0.00390625 13.21875 0.21875 0.839844 0.21875 C 0.578125 0.21875 0.3125 0.238281 0.0234375 0.265625 L 0.0234375 55.734375 Z M 9.867188 55.734375 "/></g><g clip-rule="nonzero" clip-path="url(#cce183b71c)"><path style=" stroke:none;fill-rule:nonzero;fill:#5e17eb;fill-opacity:1;" d="M 24.621094 55.734375 L 24.621094 33.398438 C 27.382812 36.136719 30.164062 38.886719 32.933594 41.628906 C 35.054688 43.726562 37.167969 45.820312 39.273438 47.902344 L 39.140625 47.902344 L 46.894531 55.734375 L 62.957031 55.734375 C 52.796875 45.621094 42.632812 35.511719 32.425781 25.355469 L 41.433594 25.355469 L 41.433594 15.832031 L 15.398438 15.832031 L 15.398438 55.734375 Z M 24.621094 55.734375 "/></g><path style=" stroke:none;fill-rule:nonzero;fill:#5e17eb;fill-opacity:1;" d="M 24.6875 33.296875 C 31.671875 40.28125 38.65625 47.582031 45.835938 54.660156 "/><g transform="matrix(1,0,0,1,68,5)"><g clip-path="url(#fa9bae88ec)"><g style="fill:#160b44;fill-opacity:1;"><g transform="translate(0.217192, 29.749198)"><path style="stroke:none" d="M 12.84375 -9.035156 C 15.246094 -9.671875 16.433594 -11.230469 16.433594 -13.632812 C 16.433594 -16.304688 14.980469 -18.8125 10.488281 -18.8125 L 1.71875 -18.8125 L 1.71875 0 L 5.628906 0 L 5.628906 -7.292969 L 9.089844 -7.292969 C 11.125 -7.292969 11.785156 -6.449219 11.945312 -4.835938 L 12.394531 0 L 16.410156 0 L 15.644531 -5.972656 C 15.484375 -7.214844 15.035156 -8.585938 12.84375 -9.035156 Z M 5.628906 -15.535156 L 9.910156 -15.535156 C 11.835938 -15.535156 12.605469 -14.480469 12.605469 -13.105469 C 12.605469 -11.652344 11.730469 -10.464844 9.378906 -10.464844 L 5.628906 -10.464844 Z M 5.628906 -15.535156 "/></g></g><g style="fill:#160b44;fill-opacity:1;"><g transform="translate(18.105746, 29.749198)"><path style="stroke:none" d="M 14.558594 -6.339844 C 14.558594 -11.125 11.601562 -13.976562 7.558594 -13.976562 C 3.382812 -13.976562 0.84375 -10.859375 0.84375 -6.871094 C 0.84375 -2.695312 3.433594 0.449219 7.953125 0.449219 C 11.019531 0.449219 13.292969 -0.976562 14.214844 -3.9375 L 10.515625 -4.203125 C 10.066406 -3.011719 9.167969 -2.429688 7.875 -2.429688 C 6.023438 -2.429688 4.835938 -3.644531 4.675781 -5.707031 L 14.558594 -5.707031 Z M 7.6875 -11.257812 C 9.378906 -11.257812 10.488281 -10.148438 10.703125 -8.246094 L 4.652344 -8.246094 C 4.835938 -10.121094 6 -11.257812 7.6875 -11.257812 Z M 7.6875 -11.257812 "/></g></g><g style="fill:#160b44;fill-opacity:1;"><g transform="translate(33.510512, 29.749198)"><path style="stroke:none" d="M 7.292969 0.503906 C 10.964844 0.503906 13.34375 -1.164062 13.34375 -4.042969 C 13.34375 -6.15625 12.074219 -7.398438 9.355469 -7.953125 L 6.421875 -8.5625 C 5.441406 -8.773438 4.886719 -9.222656 4.886719 -9.933594 C 4.886719 -10.808594 5.679688 -11.386719 6.921875 -11.386719 C 8.324219 -11.386719 9.328125 -10.675781 9.511719 -9.484375 L 12.867188 -9.617188 C 12.523438 -12.285156 10.277344 -13.976562 6.976562 -13.976562 C 3.621094 -13.976562 1.425781 -12.234375 1.425781 -9.484375 C 1.425781 -7.398438 2.722656 -6.023438 5.390625 -5.496094 L 8.085938 -4.96875 C 9.328125 -4.730469 9.882812 -4.332031 9.882812 -3.59375 C 9.882812 -2.5625 8.824219 -2.085938 7.425781 -2.085938 C 5.65625 -2.085938 4.730469 -2.855469 4.519531 -4.203125 L 1.109375 -4.070312 C 1.453125 -1.164062 3.566406 0.503906 7.292969 0.503906 Z M 7.292969 0.503906 "/></g></g><g style="fill:#160b44;fill-opacity:1;"><g transform="translate(47.779074, 29.749198)"><path style="stroke:none" d="M 9.960938 -6.339844 C 9.960938 -4.308594 8.878906 -3.011719 7.292969 -3.011719 C 5.972656 -3.011719 5.3125 -3.910156 5.3125 -5.335938 L 5.3125 -13.632812 L 1.585938 -13.632812 L 1.585938 -4.492188 C 1.585938 -1.53125 3.222656 0.34375 6.050781 0.34375 C 7.796875 0.34375 9.089844 -0.371094 9.988281 -1.851562 L 10.039062 0 L 13.6875 0 L 13.6875 -13.632812 L 9.960938 -13.632812 Z M 9.960938 -6.339844 "/></g></g><g style="fill:#160b44;fill-opacity:1;"><g transform="translate(63.051726, 29.749198)"><path style="stroke:none" d="M 16.910156 -13.976562 C 15.0625 -13.976562 13.765625 -13.183594 12.894531 -11.519531 C 12.285156 -13.054688 10.9375 -13.976562 8.984375 -13.976562 C 7.347656 -13.976562 6.128906 -13.292969 5.285156 -11.890625 L 5.230469 -13.632812 L 1.585938 -13.632812 L 1.585938 0 L 5.3125 0 L 5.3125 -7.292969 C 5.3125 -9.328125 6.289062 -10.621094 7.742188 -10.621094 C 9.035156 -10.621094 9.566406 -9.589844 9.566406 -8.375 L 9.566406 0 L 13.292969 0 L 13.292969 -7.292969 C 13.292969 -9.328125 14.269531 -10.621094 15.722656 -10.621094 C 17.015625 -10.621094 17.546875 -9.589844 17.546875 -8.375 L 17.546875 0 L 21.269531 0 L 21.269531 -9.117188 C 21.269531 -11.96875 19.738281 -13.976562 16.910156 -13.976562 Z M 16.910156 -13.976562 "/></g></g><g style="fill:#160b44;fill-opacity:1;"><g transform="translate(85.907855, 29.749198)"><path style="stroke:none" d="M 14.558594 -6.339844 C 14.558594 -11.125 11.601562 -13.976562 7.558594 -13.976562 C 3.382812 -13.976562 0.84375 -10.859375 0.84375 -6.871094 C 0.84375 -2.695312 3.433594 0.449219 7.953125 0.449219 C 11.019531 0.449219 13.292969 -0.976562 14.214844 -3.9375 L 10.515625 -4.203125 C 10.066406 -3.011719 9.167969 -2.429688 7.875 -2.429688 C 6.023438 -2.429688 4.835938 -3.644531 4.675781 -5.707031 L 14.558594 -5.707031 Z M 7.6875 -11.257812 C 9.378906 -11.257812 10.488281 -10.148438 10.703125 -8.246094 L 4.652344 -8.246094 C 4.835938 -10.121094 6 -11.257812 7.6875 -11.257812 Z M 7.6875 -11.257812 "/></g></g></g></g><g transform="matrix(1,0,0,1,68,39)"><g clip-path="url(#6edad19607)"><g style="fill:#160b44;fill-opacity:1;"><g transform="translate(0.217192, 14.042262)"><path style="stroke:none" d="M 5.917969 -4.425781 C 6.679688 -4.738281 7.109375 -5.363281 7.109375 -6.21875 C 7.109375 -7.492188 6.195312 -8.230469 4.691406 -8.230469 L 0.984375 -8.230469 L 0.984375 0 L 4.773438 0 C 6.484375 0 7.492188 -0.902344 7.492188 -2.394531 C 7.492188 -3.445312 6.980469 -4.105469 5.917969 -4.425781 Z M 4.566406 -7.292969 C 5.503906 -7.292969 6.011719 -6.890625 6.011719 -6.070312 C 6.011719 -5.226562 5.46875 -4.738281 4.460938 -4.738281 L 2.058594 -4.738281 L 2.058594 -7.292969 Z M 2.058594 -0.9375 L 2.058594 -3.835938 L 4.691406 -3.835938 C 5.804688 -3.835938 6.390625 -3.339844 6.390625 -2.394531 C 6.390625 -1.433594 5.816406 -0.9375 4.691406 -0.9375 Z M 2.058594 -0.9375 "/></g></g><g style="fill:#160b44;fill-opacity:1;"><g transform="translate(8.574831, 14.042262)"><path style="stroke:none" d="M 4.878906 -2.648438 C 4.878906 -1.226562 4 -0.773438 3.179688 -0.773438 C 2.371094 -0.773438 1.988281 -1.214844 1.988281 -2.035156 L 1.988281 -5.964844 L 0.925781 -5.964844 L 0.925781 -1.828125 C 0.925781 -0.566406 1.699219 0.148438 2.949219 0.148438 C 3.828125 0.148438 4.542969 -0.207031 4.949219 -0.84375 L 4.949219 0 L 5.941406 0 L 5.941406 -5.964844 L 4.878906 -5.964844 Z M 4.878906 -2.648438 "/></g></g><g style="fill:#160b44;fill-opacity:1;"><g transform="translate(15.441272, 14.042262)"><path style="stroke:none" d="M 1.988281 -7.085938 L 1.988281 -8.230469 L 0.925781 -8.230469 L 0.925781 -7.085938 Z M 1.988281 0 L 1.988281 -5.964844 L 0.925781 -5.964844 L 0.925781 0 Z M 1.988281 0 "/></g></g><g style="fill:#160b44;fill-opacity:1;"><g transform="translate(18.354312, 14.042262)"><path style="stroke:none" d="M 1.988281 0 L 1.988281 -8.230469 L 0.925781 -8.230469 L 0.925781 0 Z M 1.988281 0 "/></g></g><g style="fill:#160b44;fill-opacity:1;"><g transform="translate(21.267352, 14.042262)"><path style="stroke:none" d="M 4.960938 -5.25 C 4.578125 -5.769531 3.929688 -6.09375 3.15625 -6.09375 C 1.640625 -6.09375 0.578125 -4.878906 0.578125 -3.074219 C 0.578125 -1.226562 1.5625 0.128906 3.179688 0.128906 C 4.046875 0.128906 4.738281 -0.324219 5.097656 -0.949219 L 5.097656 0 L 6.023438 0 L 6.023438 -8.230469 L 4.960938 -8.230469 Z M 3.28125 -0.785156 C 2.253906 -0.785156 1.640625 -1.6875 1.640625 -3.074219 C 1.640625 -4.4375 2.277344 -5.179688 3.304688 -5.179688 C 4.300781 -5.179688 5.015625 -4.460938 5.015625 -3.050781 C 5.015625 -1.640625 4.277344 -0.785156 3.28125 -0.785156 Z M 3.28125 -0.785156 "/></g></g><g style="fill:#160b44;fill-opacity:1;"><g transform="translate(28.214711, 14.042262)"><path style="stroke:none" d="M 6.113281 -3.121094 C 6.113281 -4.980469 5.0625 -6.105469 3.386719 -6.105469 C 1.605469 -6.105469 0.578125 -4.832031 0.578125 -3.003906 C 0.578125 -1.167969 1.628906 0.140625 3.410156 0.140625 C 4.683594 0.140625 5.652344 -0.53125 6.035156 -1.699219 L 5.0625 -1.816406 C 4.785156 -1.121094 4.277344 -0.726562 3.445312 -0.726562 C 2.371094 -0.726562 1.675781 -1.386719 1.640625 -2.726562 L 6.113281 -2.726562 Z M 3.398438 -5.238281 C 4.371094 -5.238281 4.980469 -4.625 5.121094 -3.492188 L 1.652344 -3.492188 C 1.757812 -4.660156 2.449219 -5.238281 3.398438 -5.238281 Z M 3.398438 -5.238281 "/></g></g><g style="fill:#160b44;fill-opacity:1;"><g transform="translate(34.907763, 14.042262)"><path style="stroke:none" d="M 3.757812 -6.125 C 2.855469 -6.125 2.277344 -5.617188 1.917969 -4.820312 L 1.917969 -5.964844 L 0.925781 -5.964844 L 0.925781 0 L 1.988281 0 L 1.988281 -3.261719 C 2.035156 -4.472656 2.914062 -5.085938 3.699219 -5.085938 C 3.804688 -5.085938 3.917969 -5.085938 4.082031 -5.074219 L 4.082031 -6.105469 C 3.976562 -6.113281 3.871094 -6.125 3.757812 -6.125 Z M 3.757812 -6.125 "/></g></g></g></g></g></svg>