<svg xmlns="http://www.w3.org/2000/svg" xmlns:xlink="http://www.w3.org/1999/xlink" width="500" zoomAndPan="magnify" viewBox="0 0 375 374.999991" height="500" preserveAspectRatio="xMidYMid meet" version="1.2"><defs><clipPath id="9bb94c4dfa"><path d="M 119.253906 78.140625 L 251 78.140625 L 251 198.890625 L 119.253906 198.890625 Z M 119.253906 78.140625 "/></clipPath><clipPath id="3ab28f760d"><path d="M 152 112 L 255.753906 112 L 255.753906 198.890625 L 152 198.890625 Z M 152 112 "/></clipPath></defs><g id="064ff5b302"><g clip-rule="nonzero" clip-path="url(#9bb94c4dfa)"><path style=" stroke:none;fill-rule:nonzero;fill:#5e17eb;fill-opacity:1;" d="M 140.640625 198.890625 L 140.640625 181.921875 L 140.554688 181.921875 L 140.554688 101.210938 C 141.042969 101.050781 141.253906 100.921875 141.464844 100.921875 C 161.40625 100.90625 181.359375 100.609375 201.292969 101 C 212.863281 101.226562 221.394531 107.265625 225.910156 117.917969 C 230.371094 128.449219 228.445312 138.335938 221.074219 147.125 C 220.4375 147.882812 219.851562 148.683594 219.554688 149.066406 C 224.867188 154.3125 229.953125 159.332031 235.125 164.445312 C 234.925781 164.550781 235.152344 164.476562 235.316406 164.332031 C 235.742188 163.949219 236.167969 163.558594 236.550781 163.132812 C 250.609375 147.394531 254.546875 129.328125 246.59375 109.855469 C 238.527344 90.132812 222.882812 79.328125 201.539062 78.796875 C 174.734375 78.132812 147.898438 78.617188 121.078125 78.613281 C 120.511719 78.613281 119.941406 78.65625 119.3125 78.710938 L 119.3125 198.890625 Z M 140.640625 198.890625 "/></g><g clip-rule="nonzero" clip-path="url(#3ab28f760d)"><path style=" stroke:none;fill-rule:nonzero;fill:#5e17eb;fill-opacity:1;" d="M 172.605469 198.890625 L 172.605469 150.5 C 178.589844 156.429688 184.609375 162.390625 190.613281 168.332031 C 195.203125 172.871094 199.78125 177.40625 204.34375 181.917969 L 204.0625 181.917969 L 220.859375 198.890625 L 255.65625 198.890625 C 233.648438 176.980469 211.625 155.074219 189.515625 133.070312 L 209.03125 133.070312 L 209.03125 112.4375 L 152.621094 112.4375 L 152.621094 198.890625 Z M 172.605469 198.890625 "/></g><path style=" stroke:none;fill-rule:nonzero;fill:#5e17eb;fill-opacity:1;" d="M 172.746094 150.277344 C 187.878906 165.410156 203.011719 181.230469 218.5625 196.5625 "/><g style="fill:#160b44;fill-opacity:1;"><g transform="translate(99.691404, 257.110589)"><path style="stroke:none" d="M 15.6875 -12.5 L 10.078125 -12.5 L 10.078125 0 L 3.046875 0 L 3.046875 -34.125 L 15.734375 -34.125 C 19.765625 -34.125 22.875 -33.222656 25.0625 -31.421875 C 27.25 -29.628906 28.34375 -27.09375 28.34375 -23.8125 C 28.34375 -21.488281 27.835938 -19.546875 26.828125 -17.984375 C 25.816406 -16.429688 24.289062 -15.195312 22.25 -14.28125 L 29.625 -0.328125 L 29.625 0 L 22.078125 0 Z M 10.078125 -18.1875 L 15.75 -18.1875 C 17.519531 -18.1875 18.890625 -18.632812 19.859375 -19.53125 C 20.828125 -20.4375 21.3125 -21.675781 21.3125 -23.25 C 21.3125 -24.863281 20.851562 -26.128906 19.9375 -27.046875 C 19.019531 -27.972656 17.617188 -28.4375 15.734375 -28.4375 L 10.078125 -28.4375 Z M 10.078125 -18.1875 "/></g><g transform="translate(130.324215, 257.110589)"><path style="stroke:none" d="M 14.28125 0.46875 C 10.5625 0.46875 7.53125 -0.671875 5.1875 -2.953125 C 2.851562 -5.234375 1.6875 -8.273438 1.6875 -12.078125 L 1.6875 -12.734375 C 1.6875 -15.273438 2.175781 -17.550781 3.15625 -19.5625 C 4.144531 -21.570312 5.539062 -23.117188 7.34375 -24.203125 C 9.15625 -25.285156 11.21875 -25.828125 13.53125 -25.828125 C 17 -25.828125 19.726562 -24.734375 21.71875 -22.546875 C 23.707031 -20.359375 24.703125 -17.257812 24.703125 -13.25 L 24.703125 -10.484375 L 8.5625 -10.484375 C 8.78125 -8.828125 9.4375 -7.5 10.53125 -6.5 C 11.632812 -5.5 13.03125 -5 14.71875 -5 C 17.332031 -5 19.375 -5.941406 20.84375 -7.828125 L 24.171875 -4.109375 C 23.148438 -2.671875 21.769531 -1.546875 20.03125 -0.734375 C 18.300781 0.0664062 16.382812 0.46875 14.28125 0.46875 Z M 13.5 -20.34375 C 12.15625 -20.34375 11.066406 -19.890625 10.234375 -18.984375 C 9.398438 -18.078125 8.863281 -16.78125 8.625 -15.09375 L 18.046875 -15.09375 L 18.046875 -15.640625 C 18.015625 -17.140625 17.609375 -18.296875 16.828125 -19.109375 C 16.046875 -19.929688 14.9375 -20.34375 13.5 -20.34375 Z M 13.5 -20.34375 "/></g><g transform="translate(156.269525, 257.110589)"><path style="stroke:none" d="M 16.34375 -7.015625 C 16.34375 -7.835938 15.929688 -8.488281 15.109375 -8.96875 C 14.285156 -9.445312 12.96875 -9.875 11.15625 -10.25 C 5.125 -11.507812 2.109375 -14.070312 2.109375 -17.9375 C 2.109375 -20.1875 3.039062 -22.0625 4.90625 -23.5625 C 6.78125 -25.070312 9.222656 -25.828125 12.234375 -25.828125 C 15.453125 -25.828125 18.023438 -25.066406 19.953125 -23.546875 C 21.890625 -22.035156 22.859375 -20.070312 22.859375 -17.65625 L 16.078125 -17.65625 C 16.078125 -18.625 15.765625 -19.421875 15.140625 -20.046875 C 14.515625 -20.679688 13.539062 -21 12.21875 -21 C 11.070312 -21 10.1875 -20.738281 9.5625 -20.21875 C 8.9375 -19.707031 8.625 -19.054688 8.625 -18.265625 C 8.625 -17.515625 8.976562 -16.90625 9.6875 -16.4375 C 10.40625 -15.976562 11.609375 -15.582031 13.296875 -15.25 C 14.984375 -14.914062 16.40625 -14.535156 17.5625 -14.109375 C 21.132812 -12.796875 22.921875 -10.523438 22.921875 -7.296875 C 22.921875 -4.984375 21.925781 -3.109375 19.9375 -1.671875 C 17.957031 -0.242188 15.398438 0.46875 12.265625 0.46875 C 10.140625 0.46875 8.25 0.0859375 6.59375 -0.671875 C 4.945312 -1.429688 3.65625 -2.46875 2.71875 -3.78125 C 1.78125 -5.101562 1.3125 -6.53125 1.3125 -8.0625 L 7.734375 -8.0625 C 7.796875 -6.863281 8.238281 -5.941406 9.0625 -5.296875 C 9.894531 -4.660156 11.007812 -4.34375 12.40625 -4.34375 C 13.695312 -4.34375 14.675781 -4.585938 15.34375 -5.078125 C 16.007812 -5.566406 16.34375 -6.210938 16.34375 -7.015625 Z M 16.34375 -7.015625 "/></g><g transform="translate(180.949211, 257.110589)"><path style="stroke:none" d="M 17.796875 -2.578125 C 16.117188 -0.546875 13.804688 0.46875 10.859375 0.46875 C 8.140625 0.46875 6.0625 -0.3125 4.625 -1.875 C 3.195312 -3.4375 2.46875 -5.726562 2.4375 -8.75 L 2.4375 -25.359375 L 9.21875 -25.359375 L 9.21875 -8.984375 C 9.21875 -6.335938 10.421875 -5.015625 12.828125 -5.015625 C 15.117188 -5.015625 16.695312 -5.8125 17.5625 -7.40625 L 17.5625 -25.359375 L 24.359375 -25.359375 L 24.359375 0 L 17.984375 0 Z M 17.796875 -2.578125 "/></g><g transform="translate(207.808584, 257.110589)"><path style="stroke:none" d="M 8.953125 -25.359375 L 9.171875 -22.53125 C 10.960938 -24.726562 13.390625 -25.828125 16.453125 -25.828125 C 19.722656 -25.828125 21.96875 -24.539062 23.1875 -21.96875 C 24.96875 -24.539062 27.503906 -25.828125 30.796875 -25.828125 C 33.546875 -25.828125 35.59375 -25.023438 36.9375 -23.421875 C 38.28125 -21.828125 38.953125 -19.421875 38.953125 -16.203125 L 38.953125 0 L 32.15625 0 L 32.15625 -16.171875 C 32.15625 -17.609375 31.875 -18.660156 31.3125 -19.328125 C 30.75 -19.992188 29.757812 -20.328125 28.34375 -20.328125 C 26.3125 -20.328125 24.90625 -19.359375 24.125 -17.421875 L 24.140625 0 L 17.375 0 L 17.375 -16.15625 C 17.375 -17.625 17.082031 -18.6875 16.5 -19.34375 C 15.925781 -20 14.941406 -20.328125 13.546875 -20.328125 C 11.628906 -20.328125 10.238281 -19.53125 9.375 -17.9375 L 9.375 0 L 2.609375 0 L 2.609375 -25.359375 Z M 8.953125 -25.359375 "/></g><g transform="translate(249.363269, 257.110589)"><path style="stroke:none" d="M 14.28125 0.46875 C 10.5625 0.46875 7.53125 -0.671875 5.1875 -2.953125 C 2.851562 -5.234375 1.6875 -8.273438 1.6875 -12.078125 L 1.6875 -12.734375 C 1.6875 -15.273438 2.175781 -17.550781 3.15625 -19.5625 C 4.144531 -21.570312 5.539062 -23.117188 7.34375 -24.203125 C 9.15625 -25.285156 11.21875 -25.828125 13.53125 -25.828125 C 17 -25.828125 19.726562 -24.734375 21.71875 -22.546875 C 23.707031 -20.359375 24.703125 -17.257812 24.703125 -13.25 L 24.703125 -10.484375 L 8.5625 -10.484375 C 8.78125 -8.828125 9.4375 -7.5 10.53125 -6.5 C 11.632812 -5.5 13.03125 -5 14.71875 -5 C 17.332031 -5 19.375 -5.941406 20.84375 -7.828125 L 24.171875 -4.109375 C 23.148438 -2.671875 21.769531 -1.546875 20.03125 -0.734375 C 18.300781 0.0664062 16.382812 0.46875 14.28125 0.46875 Z M 13.5 -20.34375 C 12.15625 -20.34375 11.066406 -19.890625 10.234375 -18.984375 C 9.398438 -18.078125 8.863281 -16.78125 8.625 -15.09375 L 18.046875 -15.09375 L 18.046875 -15.640625 C 18.015625 -17.140625 17.609375 -18.296875 16.828125 -19.109375 C 16.046875 -19.929688 14.9375 -20.34375 13.5 -20.34375 Z M 13.5 -20.34375 "/></g></g><g style="fill:#160b44;fill-opacity:1;"><g transform="translate(151.652338, 291.460615)"><path style="stroke:none" d="M 8.953125 -7.53125 C 9.484375 -7.445312 9.96875 -7.226562 10.40625 -6.875 C 10.84375 -6.53125 11.191406 -6.097656 11.453125 -5.578125 C 11.710938 -5.066406 11.84375 -4.515625 11.84375 -3.921875 C 11.84375 -3.179688 11.648438 -2.515625 11.265625 -1.921875 C 10.890625 -1.328125 10.34375 -0.859375 9.625 -0.515625 C 8.90625 -0.171875 8.054688 0 7.078125 0 L 1.609375 0 L 1.609375 -14.640625 L 6.859375 -14.640625 C 7.859375 -14.640625 8.707031 -14.472656 9.40625 -14.140625 C 10.101562 -13.816406 10.628906 -13.375 10.984375 -12.8125 C 11.335938 -12.25 11.515625 -11.617188 11.515625 -10.921875 C 11.515625 -10.054688 11.273438 -9.335938 10.796875 -8.765625 C 10.328125 -8.203125 9.710938 -7.789062 8.953125 -7.53125 Z M 3.53125 -8.3125 L 6.734375 -8.3125 C 7.628906 -8.3125 8.320312 -8.519531 8.8125 -8.9375 C 9.3125 -9.363281 9.5625 -9.945312 9.5625 -10.6875 C 9.5625 -11.425781 9.3125 -12.003906 8.8125 -12.421875 C 8.320312 -12.847656 7.617188 -13.0625 6.703125 -13.0625 L 3.53125 -13.0625 Z M 6.90625 -1.578125 C 7.863281 -1.578125 8.609375 -1.800781 9.140625 -2.25 C 9.671875 -2.695312 9.9375 -3.316406 9.9375 -4.109375 C 9.9375 -4.921875 9.65625 -5.5625 9.09375 -6.03125 C 8.53125 -6.5 7.78125 -6.734375 6.84375 -6.734375 L 3.53125 -6.734375 L 3.53125 -1.578125 Z M 6.90625 -1.578125 "/></g></g><g style="fill:#160b44;fill-opacity:1;"><g transform="translate(164.525396, 291.460615)"><path style="stroke:none" d="M 11.828125 -11.515625 L 11.828125 0 L 9.90625 0 L 9.90625 -1.703125 C 9.539062 -1.109375 9.03125 -0.644531 8.375 -0.3125 C 7.726562 0.0078125 7.015625 0.171875 6.234375 0.171875 C 5.335938 0.171875 4.53125 -0.0078125 3.8125 -0.375 C 3.101562 -0.75 2.539062 -1.304688 2.125 -2.046875 C 1.71875 -2.796875 1.515625 -3.703125 1.515625 -4.765625 L 1.515625 -11.515625 L 3.40625 -11.515625 L 3.40625 -5.015625 C 3.40625 -3.878906 3.691406 -3.003906 4.265625 -2.390625 C 4.835938 -1.785156 5.617188 -1.484375 6.609375 -1.484375 C 7.628906 -1.484375 8.429688 -1.796875 9.015625 -2.421875 C 9.609375 -3.054688 9.90625 -3.976562 9.90625 -5.1875 L 9.90625 -11.515625 Z M 11.828125 -11.515625 "/></g></g><g style="fill:#160b44;fill-opacity:1;"><g transform="translate(177.965451, 291.460615)"><path style="stroke:none" d="M 2.609375 -13.375 C 2.242188 -13.375 1.929688 -13.5 1.671875 -13.75 C 1.421875 -14.007812 1.296875 -14.316406 1.296875 -14.671875 C 1.296875 -15.035156 1.421875 -15.34375 1.671875 -15.59375 C 1.929688 -15.851562 2.242188 -15.984375 2.609375 -15.984375 C 2.953125 -15.984375 3.242188 -15.851562 3.484375 -15.59375 C 3.734375 -15.34375 3.859375 -15.035156 3.859375 -14.671875 C 3.859375 -14.316406 3.734375 -14.007812 3.484375 -13.75 C 3.242188 -13.5 2.953125 -13.375 2.609375 -13.375 Z M 3.53125 -11.515625 L 3.53125 0 L 1.609375 0 L 1.609375 -11.515625 Z M 3.53125 -11.515625 "/></g></g><g style="fill:#160b44;fill-opacity:1;"><g transform="translate(183.131473, 291.460615)"><path style="stroke:none" d="M 3.53125 -15.546875 L 3.53125 0 L 1.609375 0 L 1.609375 -15.546875 Z M 3.53125 -15.546875 "/></g></g><g style="fill:#160b44;fill-opacity:1;"><g transform="translate(188.297496, 291.460615)"><path style="stroke:none" d="M 0.90625 -5.796875 C 0.90625 -6.972656 1.140625 -8.003906 1.609375 -8.890625 C 2.085938 -9.785156 2.742188 -10.476562 3.578125 -10.96875 C 4.410156 -11.457031 5.347656 -11.703125 6.390625 -11.703125 C 7.285156 -11.703125 8.113281 -11.492188 8.875 -11.078125 C 9.644531 -10.660156 10.234375 -10.117188 10.640625 -9.453125 L 10.640625 -15.546875 L 12.578125 -15.546875 L 12.578125 0 L 10.640625 0 L 10.640625 -2.15625 C 10.265625 -1.476562 9.707031 -0.914062 8.96875 -0.46875 C 8.226562 -0.03125 7.359375 0.1875 6.359375 0.1875 C 5.335938 0.1875 4.410156 -0.0625 3.578125 -0.5625 C 2.742188 -1.070312 2.085938 -1.78125 1.609375 -2.6875 C 1.140625 -3.59375 0.90625 -4.628906 0.90625 -5.796875 Z M 10.640625 -5.78125 C 10.640625 -6.644531 10.460938 -7.398438 10.109375 -8.046875 C 9.765625 -8.691406 9.296875 -9.179688 8.703125 -9.515625 C 8.109375 -9.859375 7.453125 -10.03125 6.734375 -10.03125 C 6.023438 -10.03125 5.375 -9.863281 4.78125 -9.53125 C 4.195312 -9.195312 3.726562 -8.707031 3.375 -8.0625 C 3.03125 -7.414062 2.859375 -6.660156 2.859375 -5.796875 C 2.859375 -4.910156 3.03125 -4.140625 3.375 -3.484375 C 3.726562 -2.835938 4.195312 -2.34375 4.78125 -2 C 5.375 -1.65625 6.023438 -1.484375 6.734375 -1.484375 C 7.453125 -1.484375 8.109375 -1.65625 8.703125 -2 C 9.296875 -2.34375 9.765625 -2.835938 10.109375 -3.484375 C 10.460938 -4.140625 10.640625 -4.90625 10.640625 -5.78125 Z M 10.640625 -5.78125 "/></g></g><g style="fill:#160b44;fill-opacity:1;"><g transform="translate(202.493559, 291.460615)"><path style="stroke:none" d="M 12.109375 -6.1875 C 12.109375 -5.832031 12.085938 -5.453125 12.046875 -5.046875 L 2.859375 -5.046875 C 2.929688 -3.910156 3.316406 -3.019531 4.015625 -2.375 C 4.722656 -1.738281 5.582031 -1.421875 6.59375 -1.421875 C 7.414062 -1.421875 8.101562 -1.613281 8.65625 -2 C 9.207031 -2.382812 9.597656 -2.898438 9.828125 -3.546875 L 11.890625 -3.546875 C 11.578125 -2.441406 10.957031 -1.539062 10.03125 -0.84375 C 9.113281 -0.15625 7.96875 0.1875 6.59375 0.1875 C 5.5 0.1875 4.519531 -0.0546875 3.65625 -0.546875 C 2.800781 -1.035156 2.128906 -1.726562 1.640625 -2.625 C 1.148438 -3.53125 0.90625 -4.582031 0.90625 -5.78125 C 0.90625 -6.96875 1.140625 -8.007812 1.609375 -8.90625 C 2.085938 -9.800781 2.753906 -10.488281 3.609375 -10.96875 C 4.472656 -11.457031 5.46875 -11.703125 6.59375 -11.703125 C 7.6875 -11.703125 8.648438 -11.460938 9.484375 -10.984375 C 10.328125 -10.503906 10.972656 -9.847656 11.421875 -9.015625 C 11.878906 -8.179688 12.109375 -7.238281 12.109375 -6.1875 Z M 10.140625 -6.59375 C 10.140625 -7.320312 9.976562 -7.945312 9.65625 -8.46875 C 9.332031 -9 8.894531 -9.398438 8.34375 -9.671875 C 7.789062 -9.941406 7.179688 -10.078125 6.515625 -10.078125 C 5.546875 -10.078125 4.722656 -9.769531 4.046875 -9.15625 C 3.367188 -8.539062 2.976562 -7.6875 2.875 -6.59375 Z M 10.140625 -6.59375 "/></g></g><g style="fill:#160b44;fill-opacity:1;"><g transform="translate(215.513616, 291.460615)"><path style="stroke:none" d="M 3.53125 -9.640625 C 3.863281 -10.296875 4.34375 -10.804688 4.96875 -11.171875 C 5.59375 -11.535156 6.351562 -11.71875 7.25 -11.71875 L 7.25 -9.75 L 6.734375 -9.75 C 4.597656 -9.75 3.53125 -8.585938 3.53125 -6.265625 L 3.53125 0 L 1.609375 0 L 1.609375 -11.515625 L 3.53125 -11.515625 Z M 3.53125 -9.640625 "/></g></g></g></svg>